<svg height="496pt" viewBox="0 0 496 496" width="496pt" xmlns="http://www.w3.org/2000/svg"><g fill="#fcd770"><path d="m344 152v32c0 9.519531-1.679688 18.71875-4.800781 27.199219l-54.398438-54.398438c8.480469-3.121093 17.679688-4.800781 27.199219-4.800781zm0 0"/><path d="m268.71875 164.71875c4.960938-3.199219 10.402344-5.917969 16.082031-7.917969l54.40625 54.398438c-4 11.121093-10.40625 21.121093-18.640625 29.359375l-65.125-65.117188c4-4 8.480469-7.601562 13.277344-10.722656zm0 0"/><path d="m255.441406 175.441406 65.125 65.117188c-4.476562 4.480468-9.445312 8.402344-14.878906 11.679687-4.558594 2.800781-9.359375 5.203125-14.480469 6.96875l-54.40625-54.40625c1.765625-5.121093 4.167969-9.921875 6.960938-14.480469 3.277343-5.441406 7.199219-10.398437 11.679687-14.878906zm0 0"/><path d="m367.441406 63.441406 65.125 65.117188c-8.238281 8.242187-18.238281 14.640625-29.359375 18.640625l-54.40625-54.398438c4-11.121093 10.398438-21.121093 18.640625-29.359375zm0 0"/><path d="m344 120c0-9.519531 1.679688-18.71875 4.800781-27.199219l54.40625 54.398438c-8.488281 3.121093-17.6875 4.800781-27.207031 4.800781h-32zm0 0"/><path d="m396.800781 44.800781 54.40625 54.398438c-4 11.121093-10.40625 21.121093-18.640625 29.359375l-65.125-65.117188c8.238282-8.242187 18.238282-14.640625 29.359375-18.640625zm0 0"/><path d="m232.878906 220.398438c.722656-5.4375 2.082032-10.636719 3.914063-15.597657l54.40625 54.398438c-4.960938 1.839843-10.167969 3.191406-15.597657 3.914062-3.761718.566407-7.679687.886719-11.601562.886719h-32v-32c0-3.921875.320312-7.839844.878906-11.601562zm0 0"/><path d="m456 40v32c0 9.519531-1.679688 18.71875-4.800781 27.199219l-54.398438-54.398438c8.480469-3.121093 17.679688-4.800781 27.199219-4.800781zm0 0"/></g><path d="m464 320c-13.28125 0-24-10.71875-24-24 0-6.640625 2.71875-12.640625 7.039062-16.960938 4.320313-4.320312 10.320313-7.039062 16.960938-7.039062 13.28125 0 24 10.71875 24 24s-10.71875 24-24 24zm0 0" fill="#ff826e"/><path d="m448 192c0-8.800781 7.199219-16 16-16s16 7.199219 16 16-7.199219 16-16 16c-5.679688 0-10.71875-3.039062-13.601562-7.519531-1.519532-2.480469-2.398438-5.359375-2.398438-8.480469zm0 0" fill="#ff826e"/><path d="m360 352c-8.800781 0-16-7.199219-16-16s7.199219-16 16-16c3.121094 0 6.078125.878906 8.558594 2.480469 4.480468 2.878906 7.441406 7.839843 7.441406 13.519531 0 8.800781-7.199219 16-16 16zm0 0" fill="#ff826e"/><path d="m279.441406 53.519531c-4.480468-2.878906-7.441406-7.839843-7.441406-13.519531 0-8.800781 7.199219-16 16-16s16 7.199219 16 16-7.199219 16-16 16c-3.121094 0-6.078125-.878906-8.558594-2.480469zm0 0" fill="#ff826e"/><path d="m280 288c0 39.761719-32.238281 72-72 72-2.480469 0-4.960938-.160156-7.441406-.398438 4.320312-3.363281 8.320312-7.042968 11.832031-11.203124 7.761719-8.871094 13.601563-19.597657 16.722656-31.277344 1.925781-6.722656 2.886719-13.761719 2.886719-21.121094v-32h32c3.921875 0 7.839844-.320312 11.601562-.878906 2.796876 7.757812 4.398438 16.160156 4.398438 24.878906zm0 0" fill="#69d6f4"/><path d="m136.398438 295.519531c3.523437 33.761719 30.402343 60.632813 64.167968 64.082031 2.472656.238282 4.953125.398438 7.433594.398438 39.761719 0 72-32.238281 72-72 0-8.71875-1.601562-17.121094-4.398438-24.878906 5.4375-.722656 10.636719-2.082032 15.597657-3.914063 5.121093-1.765625 9.914062-4.160156 14.480469-6.96875 4.082031 11.203125 6.320312 23.203125 6.320312 35.761719 0 57.441406-46.558594 104-104 104-22.558594 0-43.519531-7.199219-60.558594-19.441406-9.28125-6.636719-17.363281-14.71875-24-24-12.242187-17.039063-19.441406-38-19.441406-60.558594 0-57.441406 46.558594-104 104-104 12.558594 0 24.640625 2.238281 35.761719 6.320312-2.800781 4.558594-5.195313 9.359376-6.960938 14.480469-1.832031 4.960938-3.191406 10.160157-3.914062 15.597657-7.765625-2.878907-16.167969-4.398438-24.886719-4.398438-39.761719 0-72 32.238281-72 72 0 2.558594.152344 5.039062.398438 7.519531zm0 0" fill="#aab2bd"/><path d="m229.121094 317.121094-50.242188-50.242188c6.722656-1.917968 13.839844-2.878906 21.121094-2.878906h32v32c0 7.359375-.960938 14.398438-2.878906 21.121094zm0 0" fill="#fcd770"/><path d="m168 88c-13.28125 0-24-10.71875-24-24s10.71875-24 24-24 24 10.71875 24 24c0 6.640625-2.71875 12.640625-7.039062 16.960938-4.320313 4.320312-10.320313 7.039062-16.960938 7.039062zm0 0" fill="#ff826e"/><path d="m212.398438 348.398438-64.796876-64.796876c8.871094-7.761718 19.511719-13.601562 31.277344-16.722656l50.234375 50.234375c-3.113281 11.6875-8.960937 22.40625-16.714843 31.285157zm0 0" fill="#fcd770"/><path d="m136.398438 295.519531c3.28125-4.320312 7.042968-8.320312 11.203124-11.917969l64.796876 64.796876c-3.511719 4.167968-7.511719 7.839843-11.832032 11.203124-33.765625-3.441406-60.644531-30.320312-64.167968-64.082031zm0 0" fill="#fcd770"/><path d="m144 160c-8.800781 0-16-7.199219-16-16s7.199219-16 16-16c5.679688 0 10.71875 3.039062 13.601562 7.519531 1.519532 2.480469 2.398438 5.359375 2.398438 8.480469 0 8.800781-7.199219 16-16 16zm0 0" fill="#ff826e"/><path d="m136 288c0-39.761719 32.238281-72 72-72 8.71875 0 17.121094 1.519531 24.878906 4.398438-.558594 3.761718-.878906 7.679687-.878906 11.601562v32h-32c-7.28125 0-14.398438.960938-21.121094 2.878906-11.765625 3.121094-22.40625 8.960938-31.277344 16.722656-4.167968 3.597657-7.921874 7.597657-11.203124 11.917969-.246094-2.480469-.398438-4.960937-.398438-7.519531zm0 0" fill="#69d6f4"/><path d="m123.441406 348.558594c6.636719 9.28125 14.71875 17.363281 24 24l-25.28125 25.28125-24-24zm0 0" fill="#aab2bd"/><path d="m122.152344 397.839844 8 8-26.152344 26.160156-40-40 26.152344-26.160156zm0 0" fill="#ffeaa7"/><path d="m8 448 56-56 40 40-56 56c-11.039062 0-21.039062-4.480469-28.320312-11.679688-7.199219-7.28125-11.679688-17.28125-11.679688-28.320312zm0 0" fill="#dfb28b"/><path d="m48 456c0 4.417969-3.582031 8-8 8s-8-3.582031-8-8 3.582031-8 8-8 8 3.582031 8 8zm0 0" fill="#1e1713"/><path d="m376 160c48.519531 0 88-39.480469 88-88v-24h32v-16h-32v-32h-16v32h-24c-48.519531 0-88 39.480469-88 88v24h-24c-15.199219 0-29.503906 3.878906-42 10.6875l-27.808594-27.808594 40.433594-63.535156c1.734375.398438 3.519531.65625 5.375.65625 13.230469 0 24-10.769531 24-24s-10.769531-24-24-24-24 10.769531-24 24c0 5.558594 1.976562 10.625 5.167969 14.695312l-38.558594 60.59375-35.136719-35.136718c2.808594-4.761719 4.527344-10.230469 4.527344-16.152344 0-17.648438-14.351562-32-32-32s-32 14.351562-32 32 14.351562 32 32 32c5.921875 0 11.390625-1.71875 16.152344-4.535156l11.078125 11.078125-36.382813 22.746093c-4.105468-3.257812-9.214844-5.289062-14.847656-5.289062-13.230469 0-24 10.769531-24 24s10.769531 24 24 24 24-10.769531 24-24c0-1.785156-.222656-3.511719-.601562-5.183594l39.449218-24.65625 49.640625 49.640625c-6.074219 4.953125-11.417969 10.71875-15.992187 17.09375-10.511719-3.183593-21.390625-4.894531-32.496094-4.894531-61.761719 0-112 50.238281-112 112 0 21.847656 6.382812 42.191406 17.246094 59.441406l-15.046875 15.046875-8-8-90.199219 90.199219v3.3125c0 26.472656 21.527344 48 48 48h3.3125l90.191406-90.191406-8-8 15.046875-15.046875c17.257813 10.855469 37.601563 17.238281 59.449219 17.238281 61.761719 0 112-50.238281 112-112 0-11.105469-1.703125-21.992188-4.886719-32.503906 19.566407-14.03125 33.160157-35.832032 36.183594-60.886719l54.511719 54.511719-40.441406 63.535156c-1.726563-.398438-3.519532-.65625-5.367188-.65625-13.230469 0-24 10.769531-24 24s10.769531 24 24 24 24-10.769531 24-24c0-5.558594-1.976562-10.625-5.167969-14.695312l38.558594-60.59375 19.136719 19.136718c-2.808594 4.761719-4.527344 10.230469-4.527344 16.152344 0 17.648438 14.351562 32 32 32s32-14.351562 32-32-14.351562-32-32-32c-5.921875 0-11.390625 1.71875-16.152344 4.535156l-35.078125-35.078125 36.382813-22.746093c4.105468 3.257812 9.214844 5.289062 14.847656 5.289062 13.230469 0 24-10.769531 24-24s-10.769531-24-24-24-24 10.769531-24 24c0 1.785156.222656 3.511719.601562 5.183594l-39.449218 24.65625-49.152344-49.152344v-12.6875zm-88-128c4.414062 0 8 3.59375 8 8s-3.585938 8-8 8-8-3.59375-8-8 3.585938-8 8-8zm-144 120c-4.414062 0-8-3.59375-8-8s3.585938-8 8-8 8 3.59375 8 8-3.585938 8-8 8zm24-72c-8.824219 0-16-7.175781-16-16s7.175781-16 16-16 16 7.175781 16 16-7.175781 16-16 16zm192 264c-4.414062 0-8-3.585938-8-8s3.585938-8 8-8 8 3.585938 8 8-3.585938 8-8 8zm104-160c4.414062 0 8 3.59375 8 8s-3.585938 8-8 8-8-3.59375-8-8 3.585938-8 8-8zm-84.886719-120.199219c4.796875-3.839843 10.09375-7.074219 15.773438-9.59375l46.914062 46.90625c-2.527343 5.6875-5.761719 10.984375-9.601562 15.78125zm41.773438 64.398438c-4.796875 3.839843-10.09375 7.074219-15.773438 9.59375l-46.914062-46.90625c2.527343-5.6875 5.761719-10.984375 9.601562-15.78125zm27.113281-80.199219v24c0 3.976562-.40625 7.847656-1.03125 11.65625l-34.625-34.625c3.800781-.625 7.679688-1.03125 11.65625-1.03125zm-96 72c0-3.976562.40625-7.847656 1.03125-11.65625l34.625 34.625c-3.800781.625-7.679688 1.03125-11.65625 1.03125h-24zm-80 168c0 30.871094-21.976562 56.710938-51.113281 62.695312 12.273437-15.367187 19.113281-34.40625 19.113281-54.695312v-24h24c1.984375 0 3.9375-.167969 5.886719-.296875 1.394531 5.289063 2.113281 10.753906 2.113281 16.296875zm-30.96875-67.65625 34.625 34.625c-3.800781.625-7.679688 1.03125-11.65625 1.03125h-24v-24c0-3.976562.40625-7.847656 1.03125-11.65625zm-17.03125 11.65625v24h-24c-20.257812 0-39.320312 6.824219-54.6875 19.097656 5.984375-29.128906 31.816406-51.097656 62.6875-51.097656 5.550781 0 11.007812.71875 16.296875 2.113281-.128906 1.949219-.296875 3.902344-.296875 5.886719zm-12.359375 104.328125-51.953125-51.953125c5.25-3.558594 10.921875-6.40625 16.914062-8.464844l43.488282 43.488282c-2.058594 6-4.882813 11.679687-8.449219 16.929687zm12.359375-40.328125c0 1.496094-.167969 2.953125-.257812 4.433594l-28.175782-28.175782c1.472656-.097656 2.9375-.257812 4.433594-.257812h24zm-76.503906-1.191406 53.71875 53.71875c-.984375.921875-2.070313 1.761718-3.109375 2.632812-27.363281-4.28125-48.976563-25.902344-53.257813-53.265625.863282-1.046875 1.726563-2.101562 2.648438-3.085937zm145.617187-45.007813-46.90625-46.90625c2.527344-5.6875 5.761719-10.984375 9.601563-15.78125l53.085937 53.085938c-4.804687 3.839843-10.101562 7.074219-15.78125 9.601562zm-26-74c4.796875-3.839843 10.085938-7.074219 15.773438-9.59375l46.914062 46.90625c-2.527343 5.6875-5.753906 10.976563-9.601562 15.773438zm-222.273437 304.039063c-15.136719-1.488282-27.199219-13.550782-28.6875-28.6875l47.847656-47.839844 28.6875 28.6875zm59.160156-59.152344-28.6875-28.6875 14.878906-14.878906 28.6875 28.6875zm18.191406-34.191406-12.6875-12.6875 13.289063-13.289063c3.886719 4.558594 8.128906 8.800781 12.6875 12.6875zm181.808594-98.496094c0 52.9375-43.0625 96-96 96s-96-43.0625-96-96 43.0625-96 96-96c8.238281 0 16.34375 1.0625 24.214844 3.113281-2.246094 4.839844-4.046875 9.917969-5.390625 15.183594-6.136719-1.480469-12.433594-2.296875-18.824219-2.296875-44.113281 0-80 35.886719-80 80s35.886719 80 80 80 80-35.886719 80-80c0-6.390625-.816406-12.679688-2.296875-18.816406 5.273437-1.34375 10.34375-3.144532 15.183594-5.390625 2.050781 7.863281 3.113281 15.976562 3.113281 24.207031zm160-8c8.824219 0 16 7.175781 16 16s-7.175781 16-16 16-16-7.175781-16-16 7.175781-16 16-16zm-128-96c0 3.976562-.40625 7.847656-1.03125 11.65625l-34.625-34.625c3.800781-.625 7.679688-1.03125 11.65625-1.03125h24zm0 0" fill="#1e1713"/></svg>